<svg width="64" height="64" viewBox="0 0 64 64" fill="none" xmlns="http://www.w3.org/2000/svg">
<g clip-path="url(#clip0_2258_1484)">
<path d="M64 0H0V64H64V0Z" fill="#6FA85A"/>
<path opacity="0.45" d="M14 18C17.3137 18 20 16.2091 20 14C20 11.7909 17.3137 10 14 10C10.6863 10 8 11.7909 8 14C8 16.2091 10.6863 18 14 18Z" fill="#78B463"/>
<path opacity="0.4" d="M46 23C49.866 23 53 20.7614 53 18C53 15.2386 49.866 13 46 13C42.134 13 39 15.2386 39 18C39 20.7614 42.134 23 46 23Z" fill="#78B463"/>
<path opacity="0.28" d="M24 45C28.4183 45 32 42.7614 32 40C32 37.2386 28.4183 35 24 35C19.5817 35 16 37.2386 16 40C16 42.7614 19.5817 45 24 45Z" fill="#5C9248"/>
<path opacity="0.24" d="M50 52C53.3137 52 56 50.2091 56 48C56 45.7909 53.3137 44 50 44C46.6863 44 44 45.7909 44 48C44 50.2091 46.6863 52 50 52Z" fill="#5C9248"/>
<path d="M12 18L14 12L16 18" stroke="#5B9148" stroke-width="2" stroke-linecap="round"/>
<path d="M40 24L42 18L44 24" stroke="#5B9148" stroke-width="2" stroke-linecap="round"/>
<path d="M20 50L22 44L24 50" stroke="#5B9148" stroke-width="2" stroke-linecap="round"/>
<path d="M52 54L54 48L56 54" stroke="#5B9148" stroke-width="2" stroke-linecap="round"/>
<path d="M30 17C30.5523 17 31 16.5523 31 16C31 15.4477 30.5523 15 30 15C29.4477 15 29 15.4477 29 16C29 16.5523 29.4477 17 30 17Z" fill="#87C272"/>
<path d="M18 31C18.5523 31 19 30.5523 19 30C19 29.4477 18.5523 29 18 29C17.4477 29 17 29.4477 17 30C17 30.5523 17.4477 31 18 31Z" fill="#87C272"/>
<path d="M42 39C42.5523 39 43 38.5523 43 38C43 37.4477 42.5523 37 42 37C41.4477 37 41 37.4477 41 38C41 38.5523 41.4477 39 42 39Z" fill="#87C272"/>
<path d="M30 55C30.5523 55 31 54.5523 31 54C31 53.4477 30.5523 53 30 53C29.4477 53 29 53.4477 29 54C29 54.5523 29.4477 55 30 55Z" fill="#87C272"/>
</g>
<defs>
<clipPath id="clip0_2258_1484">
<rect width="64" height="64" fill="white"/>
</clipPath>
</defs>
</svg>
