<svg width="64" height="64" viewBox="0 0 64 64" fill="none" xmlns="http://www.w3.org/2000/svg">
<g clip-path="url(#clip0_2258_1377)">
<path d="M64 0H0V64H64V0Z" fill="#2BC8F2"/>
<path d="M8 0H0V8H8V0Z" fill="#13ADCA"/>
<path d="M24 0H16V8H24V0Z" fill="#0F89AE"/>
<path d="M40 0H32V8H40V0Z" fill="#13ADCA"/>
<path d="M56 0H48V8H56V0Z" fill="#0F89AE"/>
<path d="M16 8H8V16H16V8Z" fill="#0F89AE"/>
<path d="M32 8H24V16H32V8Z" fill="#13ADCA"/>
<path d="M48 8H40V16H48V8Z" fill="#0F89AE"/>
<path d="M64 8H56V16H64V8Z" fill="#13ADCA"/>
<path d="M8 16H0V24H8V16Z" fill="#0F89AE"/>
<path d="M24 16H16V24H24V16Z" fill="#13ADCA"/>
<path d="M40 16H32V24H40V16Z" fill="#0F89AE"/>
<path d="M56 16H48V24H56V16Z" fill="#13ADCA"/>
<path d="M16 24H8V32H16V24Z" fill="#13ADCA"/>
<path d="M32 24H24V32H32V24Z" fill="#0F89AE"/>
<path d="M48 24H40V32H48V24Z" fill="#13ADCA"/>
<path d="M64 24H56V32H64V24Z" fill="#0F89AE"/>
<path d="M8 32H0V40H8V32Z" fill="#13ADCA"/>
<path d="M24 32H16V40H24V32Z" fill="#0F89AE"/>
<path d="M40 32H32V40H40V32Z" fill="#13ADCA"/>
<path d="M56 32H48V40H56V32Z" fill="#0F89AE"/>
<path d="M16 40H8V48H16V40Z" fill="#0F89AE"/>
<path d="M32 40H24V48H32V40Z" fill="#13ADCA"/>
<path d="M48 40H40V48H48V40Z" fill="#0F89AE"/>
<path d="M64 40H56V48H64V40Z" fill="#13ADCA"/>
<path d="M8 48H0V56H8V48Z" fill="#0F89AE"/>
<path d="M24 48H16V56H24V48Z" fill="#13ADCA"/>
<path d="M40 48H32V56H40V48Z" fill="#0F89AE"/>
<path d="M56 48H48V56H56V48Z" fill="#13ADCA"/>
<path d="M16 56H8V64H16V56Z" fill="#13ADCA"/>
<path d="M32 56H24V64H32V56Z" fill="#0F89AE"/>
<path d="M48 56H40V64H48V56Z" fill="#13ADCA"/>
<path d="M64 56H56V64H64V56Z" fill="#0F89AE"/>
<path d="M16 12H12V16H16V12Z" fill="#00DBF5"/>
<path d="M40 20H36V24H40V20Z" fill="#00DBF5"/>
<path d="M24 36H20V40H24V36Z" fill="#00DBF5"/>
<path d="M48 44H44V48H48V44Z" fill="#00DBF5"/>
</g>
<defs>
<clipPath id="clip0_2258_1377">
<rect width="64" height="64" fill="white"/>
</clipPath>
</defs>
</svg>
