<svg width="125" height="125" viewBox="0 0 125 125" fill="none" xmlns="http://www.w3.org/2000/svg">
<g clip-path="url(#clip0_2257_26)">
<path d="M124 1.8876e-05L0 0.243896L0.243878 124.244L124.244 124L124 1.8876e-05Z" fill="#C9B48A"/>
<path d="M123.999 -0.00316073L-0.00341797 0.240723L0.240465 124.243L124.243 124L123.999 -0.00316073Z" fill="#7DB36C"/>
<path d="M101.072 18.4127L22.9965 18.5663C21.7283 18.5688 20.7022 19.5989 20.7047 20.8671L20.8673 103.536C20.8698 104.804 21.8999 105.83 23.1682 105.827L101.244 105.674C102.512 105.671 103.538 104.641 103.536 103.373L103.373 20.7046C103.371 19.4363 102.341 18.4102 101.072 18.4127Z" fill="#D9C7A2" stroke="#6B5B45" stroke-width="2"/>
<path d="M105.656 13.8109L18.3945 13.9825C17.1263 13.985 16.1002 15.0152 16.1027 16.2834L16.184 57.6176C16.1864 58.8859 17.2166 59.912 18.4848 59.9095L105.746 59.7379C107.014 59.7354 108.04 58.7052 108.038 57.437L107.957 16.1028C107.954 14.8345 106.924 13.8084 105.656 13.8109Z" fill="#C45454" stroke="#7D2F2F" stroke-width="2"/>
<path d="M101.144 55.1543L23.0684 55.3079L23.0955 69.0859L101.171 68.9324L101.144 55.1543Z" fill="#F2E7C8" stroke="#6B5B45" stroke-width="2"/>
<path d="M36.0798 55.2823L23.0684 55.3079L23.0955 69.0851L36.1069 69.0595L36.0798 55.2823Z" fill="#D85C5C"/>
<path d="M62.1047 55.2311L49.0933 55.2567L49.1204 69.0339L62.1318 69.0083L62.1047 55.2311Z" fill="#D85C5C"/>
<path d="M88.1296 55.1799L75.1182 55.2054L75.1453 68.9826L88.1567 68.9571L88.1296 55.1799Z" fill="#D85C5C"/>
<path d="M48.3637 73.6289L29.9941 73.665L30.0212 87.4422L48.3908 87.4061L48.3637 73.6289Z" fill="#8FD0E8" stroke="#4F6D7A" stroke-width="2"/>
<path d="M94.2905 73.5386L75.9209 73.5748L75.948 87.352L94.3176 87.3158L94.2905 73.5386Z" fill="#8FD0E8" stroke="#4F6D7A" stroke-width="2"/>
<path d="M71.3239 71.2875L52.9531 71.3236L53.0209 105.769L71.3916 105.733L71.3239 71.2875Z" fill="#8B6A43" stroke="#5C442B" stroke-width="2"/>
<path d="M66.7686 90.5855C67.9099 90.5833 68.8333 89.6562 68.8311 88.5149C68.8288 87.3735 67.9018 86.4501 66.7604 86.4524C65.6191 86.4546 64.6957 87.3817 64.6979 88.523C64.7002 89.6643 65.6272 90.5878 66.7686 90.5855Z" fill="#E8D79B"/>
<path d="M85.007 23.0371L39.08 23.1274C37.8118 23.1299 36.7857 24.16 36.7882 25.4282L36.8063 34.6136C36.8088 35.8819 37.8389 36.908 39.1071 36.9055L85.0341 36.8151C86.3023 36.8126 87.3284 35.7825 87.3259 34.5143L87.3078 25.3289C87.3053 24.0606 86.2752 23.0346 85.007 23.0371Z" fill="#FFF3CF" stroke="#6B5B45" stroke-width="2"/>
<path d="M80.4232 27.6387L43.6816 27.711L43.6907 32.3037L80.4322 32.2314L80.4232 27.6387Z" fill="#6B5B45"/>
<path d="M71.3906 105.733L53.021 105.769L53.0571 124.138L71.4267 124.102L71.3906 105.733Z" fill="#9A9A9A"/>
<path d="M76.0002 114.909L48.4458 114.963L48.4639 124.148L76.0183 124.094L76.0002 114.909Z" fill="#8A8A8A"/>
<path d="M14.1848 5L5 5.01807L5.01806 14.2029L14.2029 14.1848L14.1848 5Z" fill="#5F8F4D"/>
<path d="M119.185 5L110 5.01807L110.018 14.2029L119.203 14.1848L119.185 5Z" fill="#5F8F4D"/>
<path d="M18.5749 105.836L9.39014 105.855L9.4082 115.039L18.593 115.021L18.5749 105.836Z" fill="#5F8F4D"/>
<path d="M115.021 105.647L105.836 105.665L105.854 114.85L115.039 114.832L115.021 105.647Z" fill="#5F8F4D"/>
</g>
<defs>
<clipPath id="clip0_2257_26">
<rect width="124" height="124" fill="white" transform="translate(0 0.243896) rotate(-0.112687)"/>
</clipPath>
</defs>
</svg>
